<?xml version="1.0" encoding="UTF-8" standalone="no"?>
<!DOCTYPE svg PUBLIC "-//W3C//DTD SVG 1.1//EN" "http://www.w3.org/Graphics/SVG/1.1/DTD/svg11.dtd">
<svg xmlns="http://www.w3.org/2000/svg" version="1.1" viewBox="0.00 0.00 142.00 140.00">
<path fill="#01c3ba" d="
  M 54.01 49.42
  Q 67.29 48.02 80.75 46.53
  C 89.38 45.57 102.52 42.05 102.03 31.08
  A 0.43 0.43 0.0 0 1 102.67 30.69
  C 107.52 33.47 109.41 38.31 105.84 43.07
  C 102.04 48.13 91.69 51.61 85.74 52.96
  C 65.22 57.61 30.25 54.63 23.62 83.53
  A 0.35 0.35 0.0 0 1 22.94 83.54
  C 15.64 54.37 33.44 26.99 62.87 21.07
  C 69.51 19.73 78.48 19.69 84.43 22.05
  C 88.96 23.84 92.41 29.02 89.39 33.65
  C 85.65 39.40 76.65 41.71 69.86 43.53
  Q 61.84 45.69 53.88 48.91
  A 0.27 0.27 0.0 0 0 54.01 49.42
  Z"
/>
<path fill="#01c3ba" d="
  M 95.57 69.73
  Q 94.57 69.78 93.28 70.12
  Q 78.55 73.94 63.50 76.24
  C 45.85 78.93 33.80 91.74 42.24 110.34
  A 0.37 0.37 0.0 0 1 41.67 110.79
  C 33.33 104.37 29.18 93.62 32.63 83.57
  C 35.83 74.23 46.87 69.11 56.02 67.53
  C 77.80 63.79 98.38 63.67 113.48 46.07
  A 1.39 1.38 49.8 0 1 115.71 46.26
  C 125.41 62.17 123.41 83.92 112.91 98.58
  C 103.11 112.26 90.24 119.72 73.03 120.32
  C 64.19 120.62 56.23 120.94 52.22 111.29
  C 49.22 104.08 50.29 97.28 55.24 91.21
  C 60.94 84.22 69.30 82.15 79.40 78.49
  C 85.57 76.25 90.47 73.77 95.82 70.54
  A 0.44 0.44 0.0 0 0 95.57 69.73
  Z"
/>
</svg>
