<?xml version="1.0" encoding="UTF-8" standalone="no"?>
<!DOCTYPE svg PUBLIC "-//W3C//DTD SVG 1.1//EN" "http://www.w3.org/Graphics/SVG/1.1/DTD/svg11.dtd">
<svg xmlns="http://www.w3.org/2000/svg" version="1.1" viewBox="0.00 0.00 641.00 389.00">
<path fill="#00c4ba" d="
  M 120.29 175.96
  Q 131.78 174.79 143.19 173.24
  C 149.88 172.32 160.17 168.77 158.16 160.53
  A 0.36 0.36 0.0 0 1 158.72 160.16
  C 171.97 169.92 153.53 177.27 146.24 178.74
  C 127.91 182.45 99.51 180.74 94.69 204.70
  A 0.43 0.43 0.0 0 1 93.84 204.71
  Q 89.60 185.77 98.79 171.35
  C 108.22 156.58 124.86 149.70 142.32 152.89
  C 146.82 153.72 151.53 158.43 148.41 163.18
  C 143.21 171.11 128.90 170.76 120.14 175.48
  Q 119.01 176.09 120.29 175.96
  Z"
/>
<rect fill="#000000" x="199.01" y="166.30" width="8.98" height="54.60" rx="2.54"/>
<path fill="#000000" d="
  M 238.59 194.88
  A 0.27 0.26 -56.9 0 0 239.10 194.77
  L 239.00 168.15
  A 1.43 1.43 0.0 0 1 240.00 166.77
  Q 243.08 165.78 246.24 166.56
  A 2.00 2.00 0.0 0 1 247.75 168.50
  L 247.75 217.99
  A 1.25 1.23 -26.1 0 1 247.48 218.76
  C 245.42 221.30 240.58 222.23 238.93 218.35
  Q 233.30 205.06 228.21 192.37
  Q 227.47 190.54 227.47 192.51
  L 227.51 219.41
  Q 227.51 219.86 227.11 220.06
  Q 223.29 221.96 219.56 220.01
  A 1.03 1.01 14.2 0 1 219.01 219.11
  Q 218.99 194.65 218.96 170.26
  C 218.95 165.22 224.01 165.93 227.04 167.86
  A 1.15 1.13 -85.7 0 1 227.48 168.38
  L 238.59 194.88
  Z"
/>
<path fill="#000000" d="
  M 278.29 194.86
  A 0.30 0.29 33.9 0 0 278.86 194.75
  L 278.70 168.38
  A 1.75 1.73 -8.4 0 1 279.96 166.70
  Q 283.11 165.79 286.26 166.63
  A 1.68 1.67 -82.6 0 1 287.50 168.25
  L 287.50 218.04
  A 1.51 1.48 -20.7 0 1 286.98 219.17
  Q 284.10 221.66 280.11 220.52
  Q 279.44 220.33 279.17 219.68
  L 267.92 192.34
  A 0.35 0.35 0.0 0 0 267.25 192.47
  L 267.25 219.30
  Q 267.25 219.90 266.70 220.15
  Q 263.12 221.79 259.45 220.22
  A 1.55 1.54 11.5 0 1 258.51 218.80
  Q 258.48 194.61 258.52 170.31
  C 258.53 166.17 263.22 165.45 265.90 167.36
  Q 267.15 168.26 268.22 170.77
  Q 273.36 182.82 278.29 194.86
  Z"
/>
<path fill="#000000" d="
  M 324.15 208.51
  A 12.26 12.26 0.0 0 1 311.89 220.77
  L 309.07 220.77
  A 12.26 12.26 0.0 0 1 296.81 208.51
  L 296.81 178.61
  A 12.26 12.26 0.0 0 1 309.07 166.35
  L 311.89 166.35
  A 12.26 12.26 0.0 0 1 324.15 178.61
  L 324.15 208.51
  Z
  M 315.4264 180.1114
  A 4.78 4.78 0.0 0 0 310.6381 175.3397
  L 310.3181 175.3403
  A 4.78 4.78 0.0 0 0 305.5464 180.1286
  L 305.5936 207.1486
  A 4.78 4.78 0.0 0 0 310.3819 211.9203
  L 310.7019 211.9197
  A 4.78 4.78 0.0 0 0 315.4736 207.1314
  L 315.4264 180.1114
  Z"
/>
<path fill="#000000" d="
  M 343.18 212.15
  Q 347.96 211.88 352.76 212.06
  C 356.33 212.19 355.91 218.11 354.69 220.24
  Q 354.40 220.75 353.81 220.75
  L 335.03 220.75
  A 1.53 1.53 0.0 0 1 333.50 219.22
  L 333.50 168.30
  A 2.04 2.04 0.0 0 1 335.53 166.26
  Q 344.33 166.23 353.26 166.24
  C 355.88 166.24 355.46 172.01 354.92 173.93
  A 1.83 1.82 8.1 0 1 353.15 175.25
  L 343.07 175.17
  A 0.57 0.57 0.0 0 0 342.50 175.74
  L 342.50 189.00
  A 0.50 0.50 0.0 0 0 343.00 189.50
  L 350.65 189.51
  A 0.74 0.72 -9.5 0 1 351.34 189.99
  Q 352.77 193.97 351.24 197.88
  Q 351.00 198.48 350.36 198.48
  L 343.03 198.44
  Q 342.50 198.44 342.50 198.97
  L 342.50 211.51
  Q 342.50 212.19 343.18 212.15
  Z"
/>
<path fill="#000000" d="
  M 378.56 181.25
  A 0.36 0.36 0.0 0 0 379.23 181.25
  L 384.34 167.17
  A 1.07 1.06 -86.3 0 1 385.09 166.51
  C 387.41 165.98 393.98 167.07 392.52 171.01
  Q 388.26 182.42 383.93 193.81
  Q 383.75 194.29 383.93 194.78
  L 392.27 217.25
  A 1.07 1.06 56.5 0 1 392.05 218.35
  Q 389.03 221.57 384.58 220.74
  A 1.14 1.13 85.4 0 1 383.72 220.00
  L 379.24 207.47
  A 0.38 0.38 0.0 0 0 378.53 207.47
  L 374.05 220.21
  A 0.93 0.92 -85.1 0 1 373.33 220.82
  C 371.08 221.23 367.18 220.61 365.66 218.43
  A 1.24 1.22 37.8 0 1 365.51 217.30
  L 373.56 195.58
  A 3.70 3.70 0.0 0 0 373.56 193.00
  L 365.02 170.25
  A 1.81 1.80 -30.5 0 1 365.54 168.25
  Q 368.42 165.77 372.33 166.30
  Q 373.23 166.42 373.54 167.28
  L 378.56 181.25
  Z"
/>
<path fill="#000000" d="
  M 402.25 169.46
  A 3.09 3.08 -1.2 0 1 405.22 166.38
  C 410.76 166.17 419.35 165.53 423.92 167.88
  C 431.10 171.55 432.24 182.69 430.41 189.42
  C 427.88 198.73 420.36 199.70 411.84 199.36
  Q 411.29 199.34 411.28 199.89
  Q 411.19 208.73 411.25 217.50
  C 411.29 222.13 405.33 221.36 402.85 220.03
  A 1.12 1.11 -76.4 0 1 402.25 219.04
  L 402.25 169.46
  Z
  M 411.26 175.73
  L 411.24 189.91
  A 0.56 0.56 0.0 0 0 411.80 190.47
  L 417.82 190.48
  A 5.11 4.40 -89.9 0 0 422.23 185.38
  L 422.23 180.30
  A 5.11 4.40 -89.9 0 0 417.84 175.18
  L 411.82 175.17
  A 0.56 0.56 0.0 0 0 411.26 175.73
  Z"
/>
<path fill="#000000" d="
  M 465.0252 208.6251
  A 12.22 12.22 0.0 0 1 452.7201 220.7595
  L 449.8202 220.7392
  A 12.22 12.22 0.0 0 1 437.6858 208.4342
  L 437.8948 178.4949
  A 12.22 12.22 0.0 0 1 450.1999 166.3605
  L 453.0998 166.3808
  A 12.22 12.22 0.0 0 1 465.2342 178.6858
  L 465.0252 208.6251
  Z
  M 456.4436 180.1286
  A 4.78 4.78 0.0 0 0 451.6719 175.3403
  L 451.3519 175.3397
  A 4.78 4.78 0.0 0 0 446.5636 180.1114
  L 446.5164 207.1314
  A 4.78 4.78 0.0 0 0 451.2881 211.9197
  L 451.6081 211.9203
  A 4.78 4.78 0.0 0 0 456.3964 207.1486
  L 456.4436 180.1286
  Z"
/>
<path fill="#000000" d="
  M 482.28 177.80
  C 480.04 183.84 491.49 192.12 494.92 196.55
  C 500.67 203.95 501.46 214.01 492.28 219.04
  Q 487.91 221.44 483.44 220.49
  C 478.16 219.37 471.95 213.61 473.23 207.37
  A 0.98 0.96 -3.9 0 1 473.87 206.65
  Q 477.28 205.47 480.76 206.57
  A 1.50 1.49 6.0 0 1 481.79 207.84
  C 482.58 215.43 493.44 211.70 489.48 204.07
  C 486.30 197.97 478.33 193.86 475.02 187.66
  C 470.32 178.81 473.79 166.58 485.49 166.18
  Q 496.41 165.81 498.73 176.46
  A 1.37 1.37 0.0 0 1 498.01 177.98
  Q 494.54 179.72 490.98 178.18
  Q 490.48 177.97 490.19 177.51
  C 488.20 174.45 483.62 174.18 482.28 177.80
  Z"
/>
<path fill="#000000" d="
  M 508.81 167.99
  A 1.76 1.76 0.0 0 1 510.57 166.25
  L 528.39 166.25
  A 1.49 1.48 78.1 0 1 529.75 167.14
  Q 531.36 170.81 529.76 174.48
  A 0.90 0.90 0.0 0 1 528.95 175.02
  L 517.95 175.33
  A 0.47 0.46 89.4 0 0 517.50 175.80
  L 517.50 188.75
  A 0.75 0.75 0.0 0 0 518.25 189.50
  L 525.48 189.50
  Q 526.10 189.50 526.36 190.06
  Q 528.20 193.98 526.27 197.92
  A 1.00 0.99 12.7 0 1 525.37 198.48
  L 518.06 198.44
  Q 517.56 198.44 517.56 198.94
  L 517.48 211.09
  A 0.89 0.88 -89.3 0 0 518.34 211.98
  L 529.07 212.23
  A 0.83 0.83 0.0 0 1 529.82 212.74
  Q 531.34 216.47 529.87 220.20
  Q 529.65 220.75 529.06 220.75
  L 510.00 220.75
  A 1.10 1.10 0.0 0 1 508.90 219.74
  Q 508.44 214.31 508.55 208.73
  C 508.81 195.11 508.65 181.47 508.81 167.99
  Z"
/>
<path fill="#00c4ba" d="
  M 153.98 192.34
  Q 138.82 196.24 123.23 199.15
  C 109.92 201.64 103.37 214.26 110.45 226.50
  A 0.38 0.37 -85.5 0 1 109.89 226.98
  C 99.55 218.62 96.18 203.46 109.06 195.28
  C 126.13 184.44 154.26 193.43 168.70 171.67
  A 0.33 0.33 0.0 0 1 169.27 171.69
  C 186.96 203.04 161.59 240.28 126.13 233.77
  C 120.96 232.83 117.68 228.58 116.84 223.68
  C 114.90 212.50 122.59 206.16 132.02 202.76
  C 139.72 199.99 147.43 197.65 154.24 192.90
  A 0.31 0.31 0.0 0 0 153.98 192.34
  Z"
/>
</svg>
